PathFileType	4	(X/Y/Z)	RBDS014\RBDS014runT25.trc
DataRate	CameraRate	NumFrames	NumMarkers	Units	OrigDataRate	OrigDataStartFrame	OrigNumFrames
150.000000	150.000000	4	33	mm	150.000000	3937	4500
Frame#	Time	L.ASIS			L.Heel.Bottom			L.Heel.Lateral			L.Heel.Top			L.Iliac.Crest			L.MT1			L.MT5			L.PSIS			L.Shank.Bottom.Lateral			L.Shank.Bottom.Medial			L.Shank.Top.Lateral			L.Shank.Top.Medial			L.Thigh.Bottom.Lateral			L.Thigh.Bottom.Medial			L.Thigh.Top.Lateral			L.Thigh.Top.Medial			R.ASIS			R.ASY			R.Heel.Bottom			R.Heel.Lateral			R.Heel.Top			R.Iliac.Crest			R.MT1			R.MT5			R.PSIS			R.Shank.Bottom.Lateral			R.Shank.Bottom.Medial			R.Shank.Top.Lateral			R.Shank.Top.Medial			R.Thigh.Bottom.Lateral			R.Thigh.Bottom.Medial			R.Thigh.Top.Lateral			R.Thigh.Top.Medial			
		X1	Y1	Z1	X2	Y2	Z2	X3	Y3	Z3	X4	Y4	Z4	X5	Y5	Z5	X6	Y6	Z6	X7	Y7	Z7	X8	Y8	Z8	X9	Y9	Z9	X10	Y10	Z10	X11	Y11	Z11	X12	Y12	Z12	X13	Y13	Z13	X14	Y14	Z14	X15	Y15	Z15	X16	Y16	Z16	X17	Y17	Z17	X18	Y18	Z18	X19	Y19	Z19	X20	Y20	Z20	X21	Y21	Z21	X22	Y22	Z22	X23	Y23	Z23	X24	Y24	Z24	X25	Y25	Z25	X26	Y26	Z26	X27	Y27	Z27	X28	Y28	Z28	X29	Y29	Z29	X30	Y30	Z30	X31	Y31	Z31	X32	Y32	Z32	X33	Y33	Z33	

3938	26.24666666666667	2075.631767013876	1121.420951328548	914.5604922195057	1404.947076866483	252.8043904437845	996.8866707127565	1430.137297325617	245.4486910329834	952.0731411701976	1448.980360184802	276.5322018155596	989.0557568435054	2024.549202962598	1194.367592969809	887.4532385977294	1568.303992444235	83.22608187075686	1025.212117339528	1519.249350572375	99.55913131432658	913.9539431618053	1904.355648131433	1150.888905121146	992.6648621549505	1560.047691431819	318.6320096148299	915.3811490104155	1529.980819120393	344.6708652316262	954.3077365956437	1598.410578050899	387.5724430896379	899.837335755941	1569.449593384049	413.3813182209015	937.0372576505995	1877.066424873409	760.6045141598189	860.181389779135	1824.239485603817	781.2174941614977	906.0636702039808	1901.978314178705	867.5680642169069	847.6312805529233	1855.865659970145	886.2421198968361	895.4017421834454	2086.26131506502	1133.040318325493	1149.747780015879	2349.860989825496	152.4789044913817	1078.488584841403	2186.017196430661	32.62195451963965	1038.734194612819	2198.163662402569	53.64096462673974	1082.939791128329	2176.452524295188	83.54764214413359	1046.512414992881	2019.866537128498	1207.096635921067	1183.337093613308	2400.192415724993	132.6703206697708	1025.293317642682	2366.752864882029	88.69912145012609	1135.589733561916	1913.575376327233	1160.229945125514	1085.617045348248	2194.098543645788	213.7754150385537	1118.005866215848	2165.879104519261	219.2966249300299	1075.117393701284	2171.557689829014	292.4324518112209	1139.92255123055	2142.629418998083	294.3090872067601	1095.67486149333	2149.145872131781	735.4968789500333	1190.971398395477	2085.347185531547	710.6018635148962	1164.820854997787	2099.466009847988	831.1307288129267	1211.882393439393	2039.77148933101	808.7489391182306	1184.474604174821	
3939	26.25333333333333	2077.029677348263	1120.051781011135	914.980422734739	1399.242120290122	263.3482032225585	998.080743808375	1423.618271566147	255.430863425017	952.8929248403545	1444.109504660761	285.5650724142557	989.8114288168872	2025.877534030454	1193.036375748757	887.8336272832798	1557.131437653516	88.09346596353893	1023.440065514872	1507.380051333907	106.5291316484637	913.0679155229167	1905.373790700322	1148.927890083266	992.2335063680781	1555.364858532454	323.7936684343272	915.3053320363773	1526.068705064674	350.681969458842	954.2133531242564	1595.656612385506	391.5860990477429	899.7595387558117	1567.521774846291	418.2165687550738	937.0062264516545	1880.189016522314	758.2689268678744	860.2200399098491	1827.066048108471	778.7415130824558	905.8699047636294	1904.927594690035	865.2215283005261	847.7489107554435	1858.318049469867	883.8665153485623	895.0948181389693	2086.744317757608	1131.581149192745	1150.298276593552	2353.698852678279	151.9511423200625	1077.754988143271	2191.540115221826	29.70655691540948	1037.963409779869	2203.491879768052	50.84935061593767	1082.238286618596	2181.272950389871	80.51943740942471	1045.884496343174	2019.673005840243	1204.752263861213	1184.084398171802	2404.240847373909	133.2748714199248	1024.418942663833	2371.633535906636	88.28206504720521	1134.610531800377	1914.090822595561	1158.067644181487	1085.358324148793	2197.030569568293	210.8626566374986	1117.630342819499	2168.63889031453	216.0263384352911	1074.803930026092	2173.359758609321	289.1553865186943	1139.655044763713	2144.300900596774	290.6933229479976	1095.492300397277	2147.631832651829	733.0473922738306	1191.350669823665	2083.693553303266	708.6803662328456	1164.968506858338	2098.470314483031	829.0014901139965	1212.35154360769	2038.81406783509	807.1105164740843	1184.593782747409	
3940	26.26	2078.387339883177	1118.213623293736	915.4288315321531	1394.063475254417	273.8613519863368	999.3172166558941	1417.611696366606	265.4701614791181	953.7392965646692	1439.700484163811	294.5713075492196	990.6222512423783	2027.197675645144	1191.183611708465	888.201036404696	1546.366910724071	93.15010246713267	1021.511972911881	1496.001610847888	113.9252951515706	912.0002798758226	1906.317404733647	1146.468322368711	991.7283855123818	1551.200882538173	328.9381272252995	915.2051236676289	1522.810506315648	356.7031819298531	954.1452029906141	1593.563516922641	395.4316079053781	899.6740728575021	1566.394988543665	422.909261914013	937.019771285517	1883.84544686927	755.0454331489728	860.2047664290192	1830.379669313276	775.1745559131405	905.6332146353822	1908.066037617345	862.0639732381011	847.9034322476787	1860.918238713389	880.4915749034432	894.8412936255662	2087.181867599623	1129.810794901645	1150.98563017437	2355.195690132459	150.2571594188285	1077.111069522572	2193.805136874744	27.27854057831705	1037.080656875793	2205.671076980549	48.55401779606112	1081.388851766268	2183.390037167114	78.05027864810224	1044.95976919782	2019.371072988565	1202.08854359572	1184.837034566908	2405.847005196614	132.0894187327527	1023.845647031782	2373.384731375898	86.76511996052187	1133.876313541697	1914.505819431707	1155.432986410617	1085.021144585532	2198.046042562233	207.85465792113	1117.080103263917	2169.589802884073	212.8321358680999	1074.278666138772	2173.779713388472	285.9465408319589	1139.175607796515	2144.663321682925	287.3009517409674	1095.04223359038	2146.523852575594	730.5601757807824	1191.557354510715	2082.442455410058	706.5657168825846	1165.097917912885	2097.733000083266	826.7535998823636	1212.65112440062	2038.108220897616	805.2047410221513	1184.693002541928	
3941	26.26666666666667	2079.697119258345	1115.918731064883	915.8888505660184	1389.495385523468	284.3474333957917	1000.501226653108	1412.2385466809	275.5690392740197	954.5384193780317	1435.836145081815	303.5576340954697	991.4251877143131	2028.469026155329	1188.805395540679	888.5310475054728	1536.070710060699	98.41408430313295	1019.454829099823	1485.26625831079	121.7402132116175	910.7466822296187	1907.184537771137	1143.523771814112	991.157401637141	1547.636369232697	334.1001338897287	915.0642968712099	1520.275255270126	362.743402885123	954.0940369235609	1592.179424684078	399.150131841835	899.5788710307842	1566.102874048042	427.4729384783935	937.0763612910528	1887.963245808266	750.9875098868145	860.1490332898007	1834.141265291702	770.5774448738025	905.4030317614884	1911.326006740047	858.1473592106968	848.0896543057772	1863.647762351177	876.1712367846351	894.6809249210414	2087.55910646982	1127.710570570785	1151.794937800977	2354.448447482723	147.3270260674021	1076.470656139597	2192.842678821479	25.31638247658829	1036.103398801342	2204.761906989673	46.72162246300601	1080.395113575104	2182.846928193638	76.11995675766345	1043.749377760269	2018.992509012025	1199.151514589166	1185.561431178319	2405.08857420027	129.0192732064737	1023.453719839283	2372.128057739807	84.06412819080182	1133.312775049828	1914.818776227761	1152.349788427228	1084.608798267142	2197.217092482981	204.6836138600881	1116.349791345168	2168.787285164546	209.6578590529015	1073.54522187934	2172.872438814916	282.7418104760696	1138.503358316378	2143.75750208572	284.0782217461703	1094.355245611076	2145.793683654291	727.9875690981025	1191.639260961047	2081.577272685628	704.2150723575122	1165.22244242947	2097.231841683415	824.3419510152756	1212.808949555064	2037.627873558032	802.9901096581023	1184.785925472893	
